# xmcd
#
# Track frame offsets:
#	150
#	14312
#	30057
#
# Disc length: 649 seconds
#
# Revision: 0
# Processed by: cddbd v1.5.2PL0 Copyright (c) Steve Scherf et al.
# Submitted via: audiograbber 1.83.01
#
DISCID=10028703
DTITLE=Tom Astor - Ich bin kein Dichter - kein Poet
DYEAR=1900
DGENRE=Country
TTITLE0=Ich bin kein Dichter - kein Poet
TTITLE1=Ohne Dich wär' ich nicht ich
TTITLE2=Ich bin kein Dichter - kein Poet (lang)
EXTD=
EXTT0=
EXTT1=
EXTT2=
PLAYORDER=
